<svg width="49" height="199" viewBox="0 0 49 199" fill="none" xmlns="http://www.w3.org/2000/svg">
<g id="Side bar">
<rect id="BG" width="49" height="199" rx="24.5" fill="#012B56"/>
<g id="Vector">
<path d="M22.9085 10.0713C18.4662 10.6202 14.5094 13.4439 12.5415 17.4604C12.0772 18.4157 11.8398 19.0385 11.5918 19.9727C10.8163 22.9337 11.059 26.0741 12.283 28.8503L12.5098 29.3728L11.7396 33.1677C11.3122 35.2524 10.9798 36.9783 11.001 36.9995C11.0221 37.0153 12.7472 36.6828 14.8418 36.2553L18.6403 35.4794L19.1152 35.6958C20.1651 36.1655 21.4418 36.535 22.7344 36.7356C23.6207 36.8728 25.6625 36.857 26.6016 36.7092C28.0524 36.4717 29.2131 36.1022 30.5321 35.4583C34.1988 33.6638 36.8789 30.212 37.7336 26.1796C38.0923 24.5171 38.087 22.2739 37.7283 20.6061C37.2957 18.6163 36.4304 16.7637 35.159 15.1117C34.7105 14.5364 33.4549 13.2803 32.8798 12.8316C30.8961 11.301 28.6591 10.3721 26.2323 10.0713C25.4356 9.97625 23.6999 9.97625 22.9085 10.0713ZM25.8524 11.3696C28.0893 11.6124 30.321 12.5255 32.1095 13.94C32.5896 14.3147 33.6764 15.402 34.051 15.8823C36.9633 19.5769 37.5067 24.5804 35.4438 28.7289C34.1988 31.2254 32.2572 33.1518 29.7934 34.3288C27.1872 35.5691 24.3541 35.8489 21.5843 35.1416C20.8826 34.9622 20.2547 34.7352 19.4792 34.3816L18.8144 34.0807L15.765 34.7035C14.0873 35.0466 12.6998 35.3211 12.6892 35.3105C12.6787 35.3 12.953 33.9118 13.2959 32.2334L13.9185 29.1828L13.6178 28.5178C12.4307 25.9104 12.1669 23.2503 12.8264 20.548C14.0293 15.6237 18.2288 11.9344 23.2778 11.3696C23.8581 11.3063 25.2615 11.301 25.8524 11.3696Z" fill="white"/>
<path d="M20.508 17.1648C20.719 17.2915 22.1382 18.6638 22.3862 18.9805C22.7713 19.4608 22.7238 19.8038 22.191 20.395C21.2941 21.3978 21.12 22.712 21.732 23.8943C21.8955 24.2004 22.0907 24.4326 22.8293 25.1662C23.5627 25.9052 23.7948 26.1005 24.1008 26.2641C24.5915 26.5174 24.9977 26.6177 25.52 26.6177C26.3536 26.6177 26.9603 26.3749 27.6145 25.789C28.1368 25.3193 28.4956 25.2454 28.8965 25.5304C28.9862 25.5885 29.4611 26.0582 29.9623 26.5702C30.933 27.5624 30.9858 27.6469 30.9014 28.0797C30.8592 28.3225 30.1627 29.0614 29.6985 29.3675C29.1867 29.7 28.9229 29.7581 27.8941 29.7528C26.9076 29.7475 26.3167 29.6842 25.52 29.4836C23.0562 28.8767 20.9301 27.3197 19.6269 25.161C19.1152 24.3218 18.7459 23.4298 18.5137 22.4745C18.3132 21.6775 18.2499 21.0864 18.2447 20.0994C18.2394 18.8644 18.3555 18.5213 19.0413 17.7613C19.6322 17.1015 20.0965 16.9115 20.508 17.1648Z" fill="white"/>
</g>
<g id="Vector_2">
<path d="M21.4459 60.0482C19.7251 60.1432 17.6283 60.3701 17.01 60.5178C15.8457 60.7975 14.8668 61.3622 13.9961 62.254C13.079 63.1933 12.502 64.2909 12.2753 65.5416C12.0641 66.7236 11.9302 71.6841 12.0383 74.3437C12.1105 76.0165 12.1826 77.1353 12.2496 77.5944C12.4866 79.1406 13.383 80.6656 14.6195 81.6208C15.6396 82.407 16.6133 82.7659 18.2156 82.9453L18.7926 83.0139V85.0192C18.7926 86.8978 18.7978 87.0192 18.8854 86.9981C18.9317 86.9822 20.3949 86.1485 22.1311 85.1458L25.2893 83.3253L25.8148 83.2936C26.1033 83.2778 26.871 83.2408 27.5253 83.2092C29.7406 83.1036 31.6366 82.8873 32.43 82.6498C34.5732 82.0113 36.2579 80.1326 36.7267 77.8529C36.9174 76.9242 37.0049 74.9558 36.9998 71.5733C36.9998 68.3068 36.9174 66.3595 36.7422 65.4783C36.4846 64.1854 35.8612 63.0508 34.8978 62.1115C34.161 61.3991 33.28 60.8819 32.3166 60.597C31.6005 60.3859 29.7458 60.1748 27.448 60.0429C26.4073 59.9848 22.5072 59.9848 21.4459 60.0482ZM26.2115 61.225C28.2981 61.2672 30.9771 61.5099 31.8478 61.7368C33.517 62.1695 34.939 63.5574 35.449 65.2408C35.7272 66.159 35.82 67.7843 35.82 71.7052C35.8148 77.0825 35.6706 78.1379 34.7638 79.4836C34.4547 79.9374 33.8416 80.5601 33.4088 80.8503C33.007 81.1247 32.4403 81.3886 31.9766 81.5152C31.1368 81.7474 28.6226 81.9849 25.9281 82.0799L24.9493 82.1115L22.4918 83.5311C21.1419 84.3121 20.0239 84.9506 20.0085 84.9506C19.993 84.9506 19.9776 84.2698 19.9776 83.4308V81.9163L18.7308 81.7738C18.0404 81.6946 17.3449 81.5944 17.1749 81.5469C15.7581 81.1564 14.6143 80.2276 13.96 78.9347C13.5324 78.0957 13.4242 77.6419 13.3366 76.3754C13.1203 73.2936 13.1409 68.7659 13.383 66.2909C13.6149 63.9268 15.3356 62.0429 17.6334 61.6313C18.0044 61.568 19.7509 61.3885 20.8277 61.3041C21.5902 61.2461 24.3156 61.1616 24.6659 61.188C24.7638 61.1933 25.4593 61.2144 26.2115 61.225Z" fill="white"/>
<path d="M24.5113 64.6867H24.8153C25.6602 64.6867 26.6855 64.9453 27.5253 65.3674C29.2924 66.2645 30.3537 67.816 30.6628 69.9796C30.7092 70.2857 30.7453 70.655 30.7453 70.8028V71.0719H31.9457L31.9148 70.4651C31.7447 67.4888 30.2404 65.1775 27.7571 64.0904C26.9482 63.7368 25.7375 63.473 24.9132 63.473H24.5113V64.6867Z" fill="white"/>
<path d="M24.5113 67.0086H24.7638C25.1656 67.0086 25.8921 67.1564 26.2991 67.3252C27.5768 67.8477 28.3238 68.9875 28.4526 70.6076L28.4887 71.0719H29.6633V70.8292C29.6633 70.4281 29.5139 69.5152 29.38 69.093C28.7514 67.13 27.1904 65.9532 25.042 65.8107L24.5113 65.7791V67.0086Z" fill="white"/>
<path d="M24.5113 69.3147L24.8359 69.3463C25.6911 69.4308 26.0466 69.7791 26.1703 70.6498L26.227 71.0719H27.4068L27.3707 70.6656C27.2986 69.8529 27.0925 69.3411 26.6649 68.8714C26.2579 68.4334 25.7118 68.2065 24.9132 68.1379L24.5113 68.101V69.3147Z" fill="white"/>
<path d="M19.8282 66.5812C20.1218 66.7764 21.5026 68.217 21.5747 68.4017C21.6417 68.5917 21.6417 68.8872 21.5644 69.0297C21.5335 69.093 21.3738 69.3094 21.2089 69.5099C20.7092 70.1168 20.5288 70.6128 20.534 71.3622C20.534 71.9427 20.6679 72.4123 20.9513 72.8503C21.0646 73.0192 21.4974 73.5047 21.9199 73.9268C22.9297 74.9347 23.3058 75.1353 24.228 75.1353C24.9699 75.1353 25.4954 74.9242 26.0775 74.3912C26.4536 74.0535 26.5618 74.006 26.9534 74.0218C27.1698 74.0271 28.9163 75.8002 29.0039 76.0957C29.1018 76.4387 29.0039 76.6392 28.4887 77.1564C27.7416 77.9004 27.2367 78.0746 26.0054 78.0113C23.11 77.8529 20.6937 76.4756 19.1326 74.0851C18.2053 72.6603 17.7158 70.9453 17.7107 69.093C17.7107 68.1643 17.9013 67.6682 18.5247 66.9981C19.0966 66.3859 19.3851 66.2909 19.8282 66.5812Z" fill="white"/>
</g>
<g id="Vector_3">
<path d="M18.1739 110.032C16.2325 110.333 14.7952 111.046 13.449 112.366C12.0117 113.786 11.2448 115.386 11.0357 117.429C10.9016 118.675 11.1536 120.259 11.6578 121.378C11.7811 121.652 11.7811 121.679 11.7543 122.888C11.7221 124.128 11.765 124.751 11.9313 125.649C12.6446 129.487 15.1652 132.85 18.6405 134.587C19.8794 135.21 21.0217 135.58 22.4107 135.817C22.947 135.907 23.3332 135.934 24.3414 135.944L25.6017 135.955L26.1649 136.224C26.787 136.525 27.4574 136.752 28.1492 136.9C28.5139 136.979 28.8357 137 29.7581 137C30.7717 137 30.9809 136.984 31.4689 136.879C33.0993 136.52 34.3543 135.833 35.5556 134.656C36.3011 133.917 36.7355 133.331 37.1592 132.465C38.264 130.232 38.28 127.587 37.2074 125.332L37.0304 124.963L37.0465 123.669C37.068 121.837 36.9071 120.776 36.3762 119.234C34.8477 114.784 30.8683 111.531 26.1381 110.866C25.3872 110.755 24.1484 110.718 23.4941 110.777L22.9417 110.824L22.4644 110.623C21.4132 110.175 20.4317 109.99 19.1661 110C18.6941 110.006 18.249 110.022 18.1739 110.032ZM20.5873 111.447C21.1558 111.568 21.7242 111.764 22.2391 112.007L22.6789 112.218L23.1186 112.16C23.7569 112.081 25.2424 112.096 25.886 112.186C31.5387 112.978 35.7379 117.772 35.7058 123.405C35.7058 123.796 35.6736 124.355 35.6414 124.646L35.5771 125.174L35.8345 125.665C36.344 126.626 36.5639 127.455 36.6068 128.59C36.6711 130.321 36.2099 131.742 35.1426 133.098C33.9091 134.661 32.0964 135.59 30.0799 135.691C28.7499 135.754 27.3823 135.421 26.3204 134.777L25.9343 134.54L25.1781 134.603C23.2795 134.751 21.1772 134.334 19.4342 133.463C18.1632 132.829 17.3158 132.217 16.3451 131.24C14.7362 129.603 13.7118 127.655 13.2721 125.396C13.0683 124.361 13.0307 122.751 13.1862 121.837C13.2399 121.52 13.2345 121.494 13.079 121.182C12.843 120.728 12.5641 119.873 12.4622 119.319C12.3603 118.722 12.3603 117.661 12.4622 117.017C12.9288 114.198 15.251 111.891 18.1256 111.394C18.6995 111.299 20.0188 111.326 20.5873 111.447Z" fill="white"/>
<path d="M25.4033 116.273C26.1005 116.42 26.5349 116.568 27.1731 116.869C28.4495 117.482 29.2057 118.279 29.3076 119.129C29.3988 119.91 28.841 120.501 27.999 120.501C27.5164 120.501 27.3126 120.38 26.5671 119.63C26.0522 119.113 25.8484 118.949 25.5481 118.801C24.3897 118.226 22.6306 118.268 21.8047 118.886C21.1021 119.409 20.9412 120.369 21.4507 120.945C21.9012 121.446 22.3839 121.626 24.7651 122.159C26.7709 122.608 27.1624 122.729 27.8381 123.073C28.3798 123.347 28.9966 123.875 29.3023 124.334C29.7259 124.963 29.9673 125.966 29.8976 126.826C29.7689 128.379 28.9698 129.524 27.5325 130.221C26.4706 130.733 25.3658 130.929 23.8051 130.886C22.3839 130.844 21.3381 130.617 20.3996 130.142C19.0213 129.445 18.2275 128.447 18.2275 127.428C18.2275 126.689 18.7263 126.182 19.461 126.182C20.0402 126.182 20.1582 126.272 21.2952 127.576C21.8637 128.225 22.3517 128.5 23.242 128.669C23.8158 128.78 24.8348 128.738 25.2531 128.59C26.2346 128.247 26.7816 127.655 26.846 126.874C26.905 126.172 26.5778 125.617 25.9289 125.327C25.768 125.258 24.6686 124.952 23.478 124.651C22.2874 124.35 21.1558 124.044 20.9627 123.97C19.5629 123.453 18.7477 122.671 18.3777 121.505C18.2758 121.172 18.2543 120.992 18.2543 120.369C18.2543 119.535 18.3294 119.192 18.6298 118.574C19.2197 117.371 20.6516 116.5 22.5448 116.199C23.2259 116.093 24.7329 116.13 25.4033 116.273Z" fill="white"/>
</g>
<path id="Vector_4" d="M19.5717 175.566L16.05 174.145L32.25 167.75L28.7283 181.25L25.2065 178.586M19.5717 175.566L28.0239 171.303L23.0935 176.987M19.5717 175.566L21.6848 181.25M23.0935 176.987L21.6848 181.25M23.0935 176.987L25.2065 178.586M21.6848 181.25L25.2065 178.586M39 174.5C39 181.956 32.9558 188 25.5 188C18.0442 188 12 181.956 12 174.5C12 167.044 18.0442 161 25.5 161C32.9558 161 39 167.044 39 174.5Z" stroke="white" stroke-linejoin="round"/>
</g>
</svg>
